<?xml version="1.0" standalone="no"?>
<!DOCTYPE svg PUBLIC "-//W3C//DTD SVG 20010904//EN"
 "http://www.w3.org/TR/2001/REC-SVG-20010904/DTD/svg10.dtd">
<svg version="1.0" xmlns="http://www.w3.org/2000/svg"
 width="992.000000pt" height="992.000000pt" viewBox="0 0 992.000000 992.000000"
 preserveAspectRatio="xMidYMid meet">
<metadata>
Created by potrace 1.14, written by Peter Selinger 2001-2017
</metadata>
<g transform="translate(0.000000,992.000000) scale(0.100000,-0.100000)"
fill="#000000" stroke="none">
<path d="M2859 9916 c-2 -3 -24 -7 -49 -11 -54 -8 -75 -13 -75 -16 0 -1 -9 -3
-20 -5 -74 -11 -236 -91 -334 -165 -68 -50 -112 -93 -191 -185 -31 -35 -90
-130 -90 -144 0 -6 -5 -10 -11 -10 -5 0 -8 -4 -4 -9 3 -5 1 -12 -5 -16 -6 -4
-8 -11 -5 -16 4 -5 3 -9 -2 -9 -16 0 -54 -117 -78 -240 -12 -65 -14 -435 -14
-2655 -1 -2718 -2 -2600 40 -2750 22 -79 99 -238 135 -280 13 -15 24 -32 24
-37 0 -13 160 -171 200 -199 19 -12 37 -26 40 -29 11 -12 125 -71 195 -101 49
-21 147 -49 169 -49 14 0 28 -4 31 -10 3 -5 -4 -10 -15 -10 -32 0 -138 -29
-190 -52 -86 -37 -170 -82 -170 -90 0 -4 -6 -8 -12 -8 -7 0 -29 -13 -47 -28
-39 -30 -168 -157 -191 -188 -31 -41 -69 -100 -81 -126 -7 -16 -16 -28 -21
-28 -4 0 -8 -6 -8 -13 0 -7 -9 -31 -19 -53 -18 -37 -45 -121 -55 -174 -3 -14
-10 -43 -15 -65 -6 -25 -10 -437 -11 -1093 l0 -1053 553 1 c512 1 560 3 647
21 52 11 102 23 110 26 8 4 17 7 20 8 85 29 207 96 285 155 50 38 174 171 209
224 46 69 106 182 106 199 0 7 7 25 15 41 9 16 13 31 10 34 -3 3 0 11 6 19 6
7 8 13 5 13 -4 0 -2 8 3 19 6 10 13 36 17 57 5 28 18 1074 15 1234 -2 163 0
1043 3 1065 9 62 16 94 37 161 11 38 25 73 30 78 5 6 9 16 9 24 0 17 87 166
121 207 49 60 169 173 216 203 26 17 53 36 59 41 13 11 141 70 164 76 3 0 28
8 55 17 57 19 94 27 150 33 48 5 176 8 190 5 6 -1 15 -2 20 -1 8 2 185 1 220
0 6 0 48 0 95 0 47 0 92 0 100 0 8 0 56 1 105 1 50 1 95 1 100 0 6 -1 15 -2
20 -1 8 2 178 1 230 0 12 -1 173 0 200 1 125 2 196 1 204 -4 5 -4 12 -3 14 1
3 5 46 6 97 3 51 -3 94 -2 96 1 2 4 22 3 44 -1 22 -4 40 -4 40 -1 0 3 17 5 38
4 101 -5 193 -5 197 -1 3 3 23 2 45 -2 22 -4 40 -5 40 -1 0 3 30 6 68 5 65 0
220 27 271 49 14 6 28 11 31 11 3 1 11 5 18 9 6 5 12 5 12 2 0 -9 143 70 205
113 160 112 302 306 365 501 19 57 24 79 40 166 4 28 9 296 9 596 l2 546 -37
1 c-20 1 -39 3 -41 6 -3 2 -17 1 -31 -3 -15 -5 -36 -5 -47 -1 -11 4 -24 5 -28
3 -5 -3 -55 -4 -110 -3 -56 1 -113 1 -127 0 -14 -1 -29 -2 -35 -2 -13 1 -175
1 -195 1 -8 0 -35 0 -60 0 -25 0 -52 0 -60 0 -8 0 -53 0 -100 0 -47 0 -92 0
-100 0 -8 0 -35 0 -60 0 -25 0 -52 0 -60 0 -8 0 -53 0 -100 0 -47 0 -92 0
-100 0 -8 0 -35 0 -60 0 -25 0 -52 0 -60 0 -8 -1 -46 0 -83 1 -37 2 -70 0 -73
-3 -4 -3 -17 -2 -30 3 -13 5 -25 6 -28 2 -2 -4 -45 -5 -96 -2 -51 3 -94 2 -96
-1 -2 -3 -24 -3 -49 1 -25 4 -45 4 -45 0 0 -7 -76 -3 -97 5 -7 2 -13 1 -13 -3
0 -4 -28 -6 -62 -4 -35 1 -67 3 -73 3 -5 0 -55 0 -111 -1 -55 -1 -105 0 -110
1 -5 1 -13 1 -19 0 -8 -2 -197 -1 -240 0 -5 0 -55 0 -111 -1 -55 -1 -105 0
-110 1 -5 1 -13 1 -19 0 -8 -2 -197 -1 -240 0 -5 0 -55 0 -111 -1 -55 -1 -105
0 -110 1 -5 1 -13 1 -19 0 -8 -2 -210 -1 -240 0 -5 1 -46 1 -90 0 -44 0 -89 0
-100 0 -11 0 -53 -1 -94 -1 -41 0 -76 2 -78 4 -6 6 -4 1086 2 1121 3 17 8 42
11 57 3 15 5 29 4 30 0 2 9 30 20 63 12 33 23 65 24 70 3 14 52 112 78 155
143 243 449 436 723 456 32 3 61 7 63 9 3 2 12 0 21 -5 10 -5 23 -5 31 0 7 4
24 4 37 -1 12 -5 23 -5 23 -1 0 9 149 6 174 -4 11 -4 17 -4 14 2 -5 7 124 11
142 4 3 -1 10 -1 15 0 23 5 113 2 122 -3 6 -4 13 -4 17 0 8 9 147 6 170 -3 11
-4 17 -4 14 2 -4 5 23 9 63 9 38 0 69 -2 69 -5 0 -3 9 -6 20 -6 11 0 20 3 20
6 0 8 196 4 209 -4 6 -4 11 -4 11 1 0 4 14 8 30 8 17 0 30 -3 30 -7 0 -4 12
-3 26 2 18 7 23 7 18 -2 -4 -7 -3 -8 4 -4 14 9 189 12 198 4 3 -4 17 -3 30 2
14 6 26 6 29 -1 4 -5 11 -6 17 -3 15 10 148 8 172 -2 11 -4 17 -4 14 2 -7 10
128 11 138 1 4 -3 14 -2 24 3 10 5 19 7 22 5 18 -19 313 6 378 32 8 3 20 7 25
8 6 2 37 13 70 25 220 84 410 255 524 473 22 42 38 77 35 77 -4 0 -2 6 3 13
26 32 61 186 69 299 l6 78 -399 1 c-370 1 -405 4 -308 23 31 6 175 70 175 77
0 5 6 9 13 9 39 0 230 159 307 256 53 66 150 246 153 284 1 11 4 20 7 20 4 0
7 6 8 13 2 22 7 42 15 55 5 6 6 12 4 12 -3 0 -1 17 4 38 5 20 12 74 15 120 l6
82 -2539 0 c-1397 0 -2542 -2 -2544 -4z"/>
<path d="M6805 1990 c-27 -5 -70 -13 -95 -19 -25 -6 -54 -14 -65 -16 -11 -3
-45 -15 -75 -27 -228 -91 -414 -264 -525 -486 -43 -85 -61 -140 -84 -249 -17
-79 -19 -143 -19 -641 l-1 -552 547 1 c590 0 629 3 777 54 191 66 349 180 470
340 56 75 121 185 108 185 -4 0 -3 4 2 8 22 16 55 115 80 242 14 71 15 292 2
345 -19 79 -40 151 -45 160 -4 5 -7 15 -8 21 -4 26 -60 135 -102 199 -39 59
-212 248 -212 231 0 -3 -11 5 -24 18 -14 12 -42 31 -63 42 -21 10 -40 22 -43
26 -3 4 -37 21 -75 38 -62 28 -79 34 -120 43 -5 2 -15 5 -20 9 -6 3 -30 9 -55
13 -25 4 -48 9 -53 12 -13 8 -250 10 -302 3z"/>
</g>
</svg>
